<?xml version="1.0" encoding="UTF-8" standalone="no"?>
<!-- Generator: Adobe Illustrator 15.0.0, SVG Export Plug-In . SVG Version: 6.00 Build 0)  -->

<svg
   xmlns:dc="http://purl.org/dc/elements/1.1/"
   xmlns:cc="http://creativecommons.org/ns#"
   xmlns:rdf="http://www.w3.org/1999/02/22-rdf-syntax-ns#"
   xmlns:svg="http://www.w3.org/2000/svg"
   xmlns="http://www.w3.org/2000/svg"
   xmlns:sodipodi="http://sodipodi.sourceforge.net/DTD/sodipodi-0.dtd"
   xmlns:inkscape="http://www.inkscape.org/namespaces/inkscape"
   version="1.1"
   id="Layer_1"
   x="0px"
   y="0px"
   width="363px"
   height="285px"
   viewBox="0 0 363 285"
   enable-background="new 0 0 363 285"
   xml:space="preserve"
   inkscape:version="0.48.1 r9760"
   sodipodi:docname="osaa-logo.svg"><sodipodi:namedview
   pagecolor="#ffffff"
   bordercolor="#666666"
   borderopacity="1"
   objecttolerance="10"
   gridtolerance="10"
   guidetolerance="10"
   inkscape:pageopacity="0"
   inkscape:pageshadow="2"
   inkscape:window-width="1280"
   inkscape:window-height="723"
   id="namedview65"
   showgrid="false"
   inkscape:zoom="1.300084"
   inkscape:cx="269.10166"
   inkscape:cy="131.96336"
   inkscape:window-x="0"
   inkscape:window-y="0"
   inkscape:window-maximized="1"
   inkscape:current-layer="g7676" /><metadata
   id="metadata69"><rdf:RDF><cc:Work
       rdf:about=""><dc:format>image/svg+xml</dc:format><dc:type
         rdf:resource="http://purl.org/dc/dcmitype/StillImage" /></cc:Work></rdf:RDF></metadata><defs
   id="defs67">
	
	

		
		
		
		
		
		
	
		
		
		
		
		
		
		
	
			
			
			
			
			
		
			
		
			
			
			
		
			
		
			
		
			
			
			
		
			
		</defs>

<g
   inkscape:groupmode="layer"
   id="layer2"
   inkscape:label="Logo"
   style="display:inline"><path
     style="fill:#1e1e1e"
     inkscape:connector-curvature="0"
     id="path9"
     d="m 113.75,81.229 9.009,8.167 v 29.683 l -9.009,8.167 H 94.501 l -9.009,-8.167 V 89.396 l 9.009,-8.167 h 19.249 z m -4.02,9.398 H 98.518 l -2.981,2.721 v 21.778 l 2.981,2.721 h 11.212 l 2.981,-2.721 V 93.348 l -2.981,-2.721 z" /><path
     style="fill:#1e1e1e"
     inkscape:connector-curvature="0"
     id="path13"
     d="M 138.647,127.245 H 128.6 V 81.229 h 27.029 l 8.296,8.231 v 14.842 l -8.296,8.231 h -16.981 v 14.712 z m 0,-36.618 v 12.508 h 12.637 l 2.592,-2.592 v -7.324 l -2.592,-2.592 h -12.637 z" /><path
     style="fill:#1e1e1e"
     inkscape:connector-curvature="0"
     id="path15"
     d="m 169.763,81.229 h 31.953 v 9.398 h -21.905 v 7.907 h 19.184 v 9.396 h -19.184 v 9.917 h 21.905 v 9.398 H 169.763 V 81.229 z" /><path
     style="fill:#1e1e1e"
     inkscape:connector-curvature="0"
     id="path17"
     d="M 216.955,127.245 H 206.907 V 81.229 h 9.01 l 15.103,24.174 1.685,4.279 h 0.258 l -0.713,-4.343 v -24.11 h 10.047 v 46.017 h -9.009 l -15.101,-24.174 -1.688,-4.279 h -0.258 l 0.714,4.343 v 24.109 z" /><path
     style="fill:#1e1e1e"
     inkscape:connector-curvature="0"
     id="path21"
     d="m 84.584,150.859 8.229,-8.233 h 17.047 l 9.332,3.179 -3.045,9.008 -8.167,-2.788 H 96.833 l -2.203,2.205 v 1.618 l 0.843,1.752 20.675,8.945 2.721,5.117 v 8.749 l -8.231,8.233 h -17.11 l -9.332,-3.178 3.045,-9.008 8.167,2.787 h 11.212 l 2.203,-2.204 v -1.619 l -0.843,-1.751 -20.675,-8.945 -2.721,-5.117 v -8.75 z" /><path
     style="fill:#1e1e1e"
     inkscape:connector-curvature="0"
     id="path25"
     d="m 135.082,188.645 h -10.048 v -46.019 h 27.028 l 8.296,8.233 V 165.7 l -8.296,8.233 h -16.98 v 14.712 z m 0,-36.621 v 12.511 h 12.637 l 2.592,-2.592 v -7.327 l -2.592,-2.592 h -12.637 z" /><path
     style="fill:#1e1e1e"
     inkscape:connector-curvature="0"
     id="path29"
     d="m 183.116,142.626 14.842,44.139 -9.463,3.175 -3.499,-10.306 h -14.584 l -3.175,10.306 -9.463,-3.175 14.843,-44.139 h 10.499 z m -4.277,17.499 -0.842,-4.793 h -0.26 l -0.842,4.793 -3.63,10.759 h 9.205 l -3.631,-10.759 z" /><path
     style="fill:#1e1e1e"
     inkscape:connector-curvature="0"
     id="path31"
     d="m 229.334,173.022 6.869,6.873 -8.749,8.749 H 208.27 l -8.296,-8.296 v -29.427 l 8.296,-8.296 H 227 l 8.296,8.296 v 8.559 h -10.045 v -4.864 l -2.595,-2.592 h -10.045 l -2.592,2.592 v 22.038 l 2.592,2.592 h 10.501 l 6.222,-6.224 z" /><path
     style="fill:#1e1e1e"
     inkscape:connector-curvature="0"
     id="path33"
     d="m 240.746,142.626 h 31.952 v 9.398 h -21.904 v 7.909 h 19.184 v 9.395 h -19.184 v 9.918 h 21.904 v 9.398 h -31.952 v -46.018 z" /><path
     style="fill:#1e1e1e"
     inkscape:connector-curvature="0"
     id="path37"
     d="m 107.592,206.026 14.843,44.139 -9.463,3.175 -3.499,-10.306 H 94.888 l -3.175,10.306 -9.463,-3.175 14.843,-44.139 h 10.499 z m -4.277,17.499 -0.842,-4.793 h -0.26 l -0.842,4.793 -3.63,10.759 h 9.205 l -3.631,-10.759 z" /><path
     style="fill:#1e1e1e"
     inkscape:connector-curvature="0"
     id="path41"
     d="m 150.378,206.026 14.842,44.139 -9.463,3.175 -3.499,-10.306 h -14.584 l -3.175,10.306 -9.463,-3.175 14.843,-44.139 h 10.499 z m -4.277,17.499 -0.842,-4.793 h -0.26 l -0.842,4.793 -3.63,10.759 h 9.205 l -3.631,-10.759 z" /><path
     style="fill:#1e1e1e"
     inkscape:connector-curvature="0"
     id="path43"
     d="m 205.475,246.6 -7.193,7.064 -18.277,-18.73 h -0.842 v 17.112 h -10.047 v -46.02 h 28.129 l 7.195,7.131 v 14.649 l -7.195,7.127 h -2.332 l -2.27,-1.103 -0.129,0.195 2.268,1.619 10.693,10.956 z m -26.313,-31.175 v 10.11 h 12.897 l 2.332,-2.396 v -5.313 l -2.332,-2.4 h -12.897 z" /><path
     style="fill:#1e1e1e"
     inkscape:connector-curvature="0"
     id="path45"
     d="m 235.943,206.026 h 10.047 v 46.02 h -10.047 v -18.602 h -15.229 v 18.602 h -10.048 v -46.02 h 10.048 v 18.02 h 15.229 v -18.02 z" /><path
     style="fill:#1e1e1e"
     inkscape:connector-curvature="0"
     id="path47"
     d="m 253.127,243.812 v -37.786 h 10.046 v 34.028 l 2.592,2.593 h 10.046 l 2.594,-2.593 v -34.028 h 10.046 v 37.786 l -8.296,8.233 h -18.73 l -8.298,-8.233 z" /><path
     style="fill:#1e1e1e"
     inkscape:connector-curvature="0"
     id="path49"
     d="m 293.446,214.26 8.229,-8.233 h 17.047 l 9.332,3.179 -3.045,9.008 -8.167,-2.788 h -11.148 l -2.202,2.205 v 1.619 l 0.842,1.751 20.676,8.945 2.721,5.117 v 8.75 l -8.231,8.233 h -17.11 l -9.332,-3.179 3.045,-9.008 8.167,2.788 h 11.213 l 2.203,-2.205 v -1.619 l -0.843,-1.751 -20.676,-8.945 -2.721,-5.117 v -8.75 z" /><path
     style="fill:#1e1e1e"
     d="m 78.312,36.348 3.461,1.1 3.398,-3.074 -26.773,-8.52 1.119,5.071 3.607,1.151 1.268,5.788 -2.782,2.54 1.298,5.868 6.778,2.155 5.021,-4.57 -0.776,-3.518 z"
     id="polygon53" /><path
     style="fill:#1e1e1e"
     d="m 53.107,34.267 2.756,-2.508 -1.114,-5.058 -20.708,18.901 5.17,1.666 2.766,-2.536 5.643,1.804 0.814,3.72 5.42,1.753 5.399,-4.92 -1.304,-5.9 -3.561,-1.134 z"
     id="polygon55" /><path
     style="fill:#1e1e1e"
     d="m 73.787,58.118 6.388,2.074 2.832,-2.588 5.636,1.797 0.842,3.802 4.232,1.377 -6.029,-27.441 -3.299,3.004 0.837,3.786 -4.387,3.984 -3.714,-1.187 -4.873,4.42 z"
     id="polygon57" /><path
     style="fill:#1e1e1e"
     d="m 49.141,76.654 -3.526,-1.124 -4.14,3.786 26.779,8.513 -1.131,-5.15 -3.57,-1.132 -1.262,-5.787 2.752,-2.516 -1.298,-5.82 -6.848,-2.18 -4.28,3.912 0.783,3.614 z"
     id="polygon59" /><path
     style="fill:#1e1e1e"
     d="m 38.875,54.511 -0.806,-3.674 -5.141,-1.661 6.017,27.381 4.214,-3.847 -0.754,-3.45 4.273,-3.89 3.358,1.071 4.332,-3.956 -1.501,-6.862 -5.624,-1.817 -2.731,2.489 z"
     id="polygon61" /><path
     style="fill:#1e1e1e"
     d="m 73.569,79.35 -2.783,2.539 1.122,5.085 20.633,-18.841 -4.314,-1.4 -2.681,2.442 -5.641,-1.799 -0.79,-3.594 -6.384,-2.062 -5.331,4.861 1.288,5.832 3.611,1.148 z"
     id="polygon63" /><g
     gcodetools="Gcodetools tool defenition"
     transform="translate(-392.73664,21.755725)"
     id="g5013"><path
       inkscape:connector-curvature="0"
       style="fill:#00ff00;fill-opacity:0.5;stroke:#444444;stroke-width:1px"
       gcodetools="Gcodetools tool background"
       d="m -20,-20 400,0 0,175 -400,0 z"
       id="path5015" /><g
       gcodetools="Gcodetools tool parameter"
       id="g5017"><text
   y="0"
   x="0"
   style="font-size:20px;font-style:normal;font-variant:normal;font-weight:bold;font-stretch:normal;fill:#000000;fill-opacity:1;stroke:none"
   xml:space="preserve"
   gcodetools="Gcodetools tool defention field name"
   id="text5019">name</text>


<text
   y="0"
   x="150"
   style="font-size:20px;font-style:normal;font-variant:normal;font-weight:normal;font-stretch:normal;fill:#000000;fill-opacity:1;stroke:none"
   xml:space="preserve"
   gcodetools="Gcodetools tool defention field value"
   id="text5021"><tspan
     y="0"
     x="150"
     sodipodi:role="line"
     gcodetools="Gcodetools tool defention field value"
     id="tspan5023">Cylindrical cutter</tspan></text>


</g><g
       gcodetools="Gcodetools tool parameter"
       id="g5025"><text
   y="20"
   x="0"
   style="font-size:10px;font-style:normal;font-variant:normal;font-weight:bold;font-stretch:normal;fill:#000000;fill-opacity:1;stroke:none"
   xml:space="preserve"
   gcodetools="Gcodetools tool defention field name"
   id="text5027">id</text>


<text
   y="20"
   x="150"
   style="font-size:10px;font-style:normal;font-variant:normal;font-weight:normal;font-stretch:normal;fill:#000000;fill-opacity:1;stroke:none"
   xml:space="preserve"
   gcodetools="Gcodetools tool defention field value"
   id="text5029"><tspan
     y="20"
     x="150"
     sodipodi:role="line"
     gcodetools="Gcodetools tool defention field value"
     id="tspan5031">Cylindrical cutter 0001</tspan></text>


</g><g
       gcodetools="Gcodetools tool parameter"
       id="g5033"><text
   y="35"
   x="0"
   style="font-size:10px;font-style:normal;font-variant:normal;font-weight:bold;font-stretch:normal;fill:#000000;fill-opacity:1;stroke:none"
   xml:space="preserve"
   gcodetools="Gcodetools tool defention field name"
   id="text5035">diameter</text>


<text
   y="35"
   x="150"
   style="font-size:10px;font-style:normal;font-variant:normal;font-weight:normal;font-stretch:normal;fill:#000000;fill-opacity:1;stroke:none"
   xml:space="preserve"
   gcodetools="Gcodetools tool defention field value"
   id="text5037"><tspan
     y="35"
     x="150"
     sodipodi:role="line"
     gcodetools="Gcodetools tool defention field value"
     id="tspan5039">3.175</tspan></text>


</g><g
       gcodetools="Gcodetools tool parameter"
       id="g5041"><text
   y="50"
   x="0"
   style="font-size:10px;font-style:normal;font-variant:normal;font-weight:bold;font-stretch:normal;fill:#000000;fill-opacity:1;stroke:none"
   xml:space="preserve"
   gcodetools="Gcodetools tool defention field name"
   id="text5043">feed</text>


<text
   y="50"
   x="150"
   style="font-size:10px;font-style:normal;font-variant:normal;font-weight:normal;font-stretch:normal;fill:#000000;fill-opacity:1;stroke:none"
   xml:space="preserve"
   gcodetools="Gcodetools tool defention field value"
   id="text5045"><tspan
     y="50"
     x="150"
     sodipodi:role="line"
     gcodetools="Gcodetools tool defention field value"
     id="tspan5047">400</tspan></text>


</g><g
       gcodetools="Gcodetools tool parameter"
       id="g5049"><text
   y="65"
   x="0"
   style="font-size:10px;font-style:normal;font-variant:normal;font-weight:bold;font-stretch:normal;fill:#000000;fill-opacity:1;stroke:none"
   xml:space="preserve"
   gcodetools="Gcodetools tool defention field name"
   id="text5051">penetration angle</text>


<text
   y="65"
   x="150"
   style="font-size:10px;font-style:normal;font-variant:normal;font-weight:normal;font-stretch:normal;fill:#000000;fill-opacity:1;stroke:none"
   xml:space="preserve"
   gcodetools="Gcodetools tool defention field value"
   id="text5053"><tspan
     y="65"
     x="150"
     sodipodi:role="line"
     gcodetools="Gcodetools tool defention field value"
     id="tspan5055">90</tspan></text>


</g><g
       gcodetools="Gcodetools tool parameter"
       id="g5057"><text
   y="80"
   x="0"
   style="font-size:10px;font-style:normal;font-variant:normal;font-weight:bold;font-stretch:normal;fill:#000000;fill-opacity:1;stroke:none"
   xml:space="preserve"
   gcodetools="Gcodetools tool defention field name"
   id="text5059">penetration feed</text>


<text
   y="80"
   x="150"
   style="font-size:10px;font-style:normal;font-variant:normal;font-weight:normal;font-stretch:normal;fill:#000000;fill-opacity:1;stroke:none"
   xml:space="preserve"
   gcodetools="Gcodetools tool defention field value"
   id="text5061"><tspan
     y="80"
     x="150"
     sodipodi:role="line"
     gcodetools="Gcodetools tool defention field value"
     id="tspan5063">100</tspan></text>


</g><g
       gcodetools="Gcodetools tool parameter"
       id="g5065"><text
   y="95"
   x="0"
   style="font-size:10px;font-style:normal;font-variant:normal;font-weight:bold;font-stretch:normal;fill:#000000;fill-opacity:1;stroke:none"
   xml:space="preserve"
   gcodetools="Gcodetools tool defention field name"
   id="text5067">depth step</text>


<text
   y="95"
   x="150"
   style="font-size:10px;font-style:normal;font-variant:normal;font-weight:normal;font-stretch:normal;fill:#000000;fill-opacity:1;stroke:none"
   xml:space="preserve"
   gcodetools="Gcodetools tool defention field value"
   id="text5069"><tspan
     y="95"
     x="150"
     sodipodi:role="line"
     gcodetools="Gcodetools tool defention field value"
     id="tspan5071">1</tspan></text>


</g><g
       gcodetools="Gcodetools tool parameter"
       id="g5073"><text
   y="110"
   x="0"
   style="font-size:10px;font-style:normal;font-variant:normal;font-weight:bold;font-stretch:normal;fill:#000000;fill-opacity:1;stroke:none"
   xml:space="preserve"
   gcodetools="Gcodetools tool defention field name"
   id="text5075">tool change gcode</text>


<text
   y="110"
   x="150"
   style="font-size:10px;font-style:normal;font-variant:normal;font-weight:normal;font-stretch:normal;fill:#000000;fill-opacity:1;stroke:none"
   xml:space="preserve"
   gcodetools="Gcodetools tool defention field value"
   id="text5077"><tspan
     y="110"
     x="150"
     sodipodi:role="line"
     gcodetools="Gcodetools tool defention field value"
     id="tspan5079"> </tspan></text>


</g></g></g><g
   id="g7668"
   gcodetools="Gcodetools orientation group"
   transform="translate(-100.12951,8.2743571)"><g
     id="g7670"
     gcodetools="Gcodetools orientation point (2 points)"
     transform="translate(99.993539,-293.06186)"><path
   id="path7672"
   gcodetools="Gcodetools orientation point arrow"
   d="m 0.135971,289.7875 2.9374352,-6.34375 0.812482,1.90625 6.8435978,-6.84375 0,0 0.687485,0.6875 -6.8435993,6.84375 1.9062079,0.8125 z"
   style="fill:#000000;stroke:none"
   inkscape:connector-curvature="0" /><text
   id="text7674"
   gcodetools="Gcodetools orientation point text"
   xml:space="preserve"
   style="font-size:10px;font-style:normal;font-variant:normal;font-weight:normal;font-stretch:normal;fill:#000000;fill-opacity:1;stroke:none"
   x="10"
   y="275">(0.0; 0.0; 0.0)</text>

</g><g
     id="g7676"
     gcodetools="Gcodetools orientation point (2 points)"
     transform="translate(99.993539,48.462284)"><path
   id="path7678"
   gcodetools="Gcodetools orientation point arrow"
   d="m 0.135971,38.263359 2.9375,-6.34375 0.8125,1.90625 6.843749,-6.84375 0,0 0.6875,0.6875 -6.8437504,6.84375 1.90625,0.8125 z"
   style="fill:#000000;stroke:none"
   inkscape:connector-curvature="0" /><text
   id="text7680"
   gcodetools="Gcodetools orientation point text"
   xml:space="preserve"
   style="font-size:10px;font-style:normal;font-variant:normal;font-weight:normal;font-stretch:normal;fill:#000000;fill-opacity:1;stroke:none"
   x="12.814983"
   y="-38.825871">(100.0; 0.0; -0.5)</text>

</g></g></svg>